HIERARCHY
ROOT SpineBase
{
  OFFSET 0.000000 0.000000 0.000000
  CHANNELS 6 Xposition Yposition Zposition Zrotation Xrotation Yrotation
  JOINT SpineMid
  {
    OFFSET 0.000000 35.691000 0.000000
    CHANNELS 3 Zrotation Xrotation Yrotation
    JOINT SpineShoulder
    {
      OFFSET 0.260361 26.489953 -0.870236
      CHANNELS 3 Zrotation Xrotation Yrotation
      JOINT Neck
      {
        OFFSET 0.189242 8.748155 -0.649104
        CHANNELS 3 Zrotation Xrotation Yrotation
        JOINT Head
        {
          OFFSET -0.029972 11.769176 3.816861
          CHANNELS 3 Zrotation Xrotation Yrotation
          End Site
          {
            OFFSET 0 0 0
          }
        }
      }
      JOINT ShoulderLeft
      {
        OFFSET -14.462403 -6.391909 -1.101392
        CHANNELS 3 Zrotation Xrotation Yrotation
        JOINT ElbowLeft
        {
          OFFSET 0.352703 -26.471048 -2.673257
          CHANNELS 3 Zrotation Xrotation Yrotation
          JOINT WristLeft
          {
            OFFSET -4.601916 -22.091716 5.394145
            CHANNELS 3 Zrotation Xrotation Yrotation
            JOINT HandLeft
            {
              OFFSET -0.093290 -4.559621 -5.250148
              CHANNELS 3 Zrotation Xrotation Yrotation
              JOINT HandTipLeft
              {
                OFFSET -6.575562 -9.232731 8.088058
                CHANNELS 3 Zrotation Xrotation Yrotation
                End Site
                {
                  OFFSET 0 0 0
                }
              }
              JOINT ThumbLeft
              {
                OFFSET -1.281111 5.873328 0.043918
                CHANNELS 3 Zrotation Xrotation Yrotation
                End Site
                {
                  OFFSET 0 0 0
                }
              }
            }
          }
        }
      }
      JOINT ShoulderRight
      {
        OFFSET 11.479967 -5.981944 -11.116463
        CHANNELS 3 Zrotation Xrotation Yrotation
        JOINT ElbowRight
        {
          OFFSET 6.694565 -27.568809 -0.306770
          CHANNELS 3 Zrotation Xrotation Yrotation
          JOINT WristRight
          {
            OFFSET 2.966472 -23.377964 6.450789
            CHANNELS 3 Zrotation Xrotation Yrotation
            JOINT HandRight
            {
              OFFSET 0.250947 -3.913953 0.243167
              CHANNELS 3 Zrotation Xrotation Yrotation
              JOINT HandTipRight
              {
                OFFSET 1.268294 -5.524922 -0.176357
                CHANNELS 3 Zrotation Xrotation Yrotation
                End Site
                {
                  OFFSET 0 0 0
                }
              }
              JOINT ThumbRight
              {
                OFFSET 3.144385 -0.696330 -2.534512
                CHANNELS 3 Zrotation Xrotation Yrotation
                End Site
                {
                  OFFSET 0 0 0
                }
              }
            }
          }
        }
      }
    }
  }
  JOINT HipLeft
  {
    OFFSET -5.917075 1.049390 -1.540298
    CHANNELS 3 Zrotation Xrotation Yrotation
    JOINT KneeLeft
    {
      OFFSET -1.751021 -33.462481 -2.805062
      CHANNELS 3 Zrotation Xrotation Yrotation
      JOINT AnkleLeft
      {
        OFFSET -4.337105 -35.607637 0.201209
        CHANNELS 3 Zrotation Xrotation Yrotation
        JOINT FootLeft
        {
          OFFSET -2.092865 -2.013658 -11.837208
          CHANNELS 3 Zrotation Xrotation Yrotation
          End Site
          {
            OFFSET 0 0 0
          }
        }
      }
    }
  }
  JOINT HipRight
  {
    OFFSET 7.768971 2.033749 -5.604832
    CHANNELS 3 Zrotation Xrotation Yrotation
    JOINT KneeRight
    {
      OFFSET -3.867672 -33.089596 -4.652689
      CHANNELS 3 Zrotation Xrotation Yrotation
      JOINT AnkleRight
      {
        OFFSET -2.066021 -29.441392 -4.000754
        CHANNELS 3 Zrotation Xrotation Yrotation
        JOINT FootRight
        {
          OFFSET -8.557700 -2.715715 3.946022
          CHANNELS 3 Zrotation Xrotation Yrotation
          End Site
          {
            OFFSET 0 0 0
          }
        }
      }
    }
  }
}
MOTION
Frames: 10
Frame Time: 0.033333
-61.633699 73.379199 239.655247 -1.772919 -0.722861 12.688464 0.280316 0.073755 -12.743372 -0.069143 -0.133116 -0.059391 4.448025 -1.817070 -0.821834 0.000000 0.000000 0.000000 -13.364379 -12.715958 -0.149573 104.255268 20.145262 -14.188184 -67.417231 -13.580320 -43.846566 15.693258 47.076440 47.477446 0.000000 0.000000 0.000000 0.000000 0.000000 0.000000 -0.964953 -0.131454 -0.074489 1.288896 4.376061 0.321926 -13.861233 -9.860263 -3.199569 1.839196 2.700180 1.064558 0.000000 0.000000 0.000000 0.000000 0.000000 0.000000 0.117467 -0.320624 -12.518966 4.365107 4.909015 -0.806334 -2.320320 -4.451615 -1.470898 0.000000 0.000000 0.000000 5.561247 -0.295069 -13.255122 -3.797753 1.855542 0.403970 35.898851 10.658985 -55.612979 0.000000 0.000000 0.000000
-61.661977 73.385367 239.715641 -1.803128 -0.796138 12.413119 0.297713 0.084343 -12.469336 -0.065449 -0.176811 -0.058675 4.482690 -1.782363 -0.836194 0.000000 0.000000 0.000000 -14.462264 -13.224672 -0.224353 108.273857 19.714944 -15.184236 -71.336550 -12.812889 -43.230922 17.928332 45.578736 45.292386 0.000000 0.000000 0.000000 0.000000 0.000000 0.000000 -0.875656 -0.192460 -0.118133 1.267847 4.497882 0.371642 -14.194138 -10.438851 -3.374724 2.382169 4.808236 1.635872 0.000000 0.000000 0.000000 0.000000 0.000000 0.000000 0.117193 -0.201159 -12.240677 4.574884 4.755786 -0.797477 -2.455422 -4.354136 -1.593772 0.000000 0.000000 0.000000 5.727619 -0.109342 -13.018596 -3.942204 1.738054 0.433918 31.228866 11.408874 -26.226598 0.000000 0.000000 0.000000
-61.698022 73.393118 239.776263 -1.843863 -0.872425 12.189180 0.320989 0.093067 -12.247046 -0.064372 -0.219276 -0.058310 4.549354 -1.709013 -0.859123 0.000000 0.000000 0.000000 -15.523145 -14.351789 -0.411279 112.729735 19.114491 -16.936254 -72.828321 -11.419516 -44.720233 16.201490 43.145264 48.340630 0.000000 0.000000 0.000000 0.000000 0.000000 0.000000 -0.765006 -0.294622 -0.173114 1.214368 4.690360 0.432171 -14.540113 -10.868484 -3.528371 1.978791 3.812936 1.292632 0.000000 0.000000 0.000000 0.000000 0.000000 0.000000 0.158396 -0.088404 -12.016830 4.499599 3.679232 -0.638153 -2.366423 -3.289289 -1.779834 0.000000 0.000000 0.000000 5.910037 0.060672 -12.833778 -4.088994 1.645172 0.461885 30.310032 11.235815 -23.208934 0.000000 0.000000 0.000000
-61.733615 73.398534 239.823879 -1.883131 -0.929225 12.019351 0.337785 0.088064 -12.078841 -0.059997 -0.252795 -0.057947 4.631485 -1.683050 -0.885741 0.000000 0.000000 0.000000 -15.207823 -14.351101 -0.395480 115.378261 19.038817 -17.676942 -77.355143 -12.424387 -44.553351 17.275028 42.628032 45.909291 0.000000 0.000000 0.000000 0.000000 0.000000 0.000000 -0.709104 -0.392744 -0.222661 1.222270 4.880299 0.490964 -14.817659 -11.322608 -3.679558 1.835336 3.713607 1.213100 0.000000 0.000000 0.000000 0.000000 0.000000 0.000000 0.204791 -0.004928 -11.848010 4.426003 3.223958 -0.570642 -2.265560 -2.861404 -1.964188 0.000000 0.000000 0.000000 6.065936 0.185113 -12.695394 -4.215924 1.593297 0.483712 34.250125 11.126255 -45.704905 0.000000 0.000000 0.000000
-61.761747 73.404855 239.861998 -1.913181 -0.973004 11.914980 0.351084 0.085510 -11.975746 -0.054435 -0.271342 -0.057586 4.757522 -1.776126 -0.924392 0.000000 0.000000 0.000000 -16.408546 -15.348613 -0.585738 119.222222 18.403802 -19.289938 -80.432821 -11.082425 -43.817179 20.079968 40.533426 45.535433 0.000000 0.000000 0.000000 0.000000 0.000000 0.000000 -0.692861 -0.497533 -0.266069 1.259756 5.047409 0.542202 -15.193665 -11.523646 -3.800050 1.890979 3.703738 1.199155 0.000000 0.000000 0.000000 0.000000 0.000000 0.000000 0.241234 0.069005 -11.744752 4.486672 2.866715 -0.521784 -2.295765 -2.530895 -2.162845 0.000000 0.000000 0.000000 6.185575 0.272414 -12.614650 -4.320069 1.564428 0.500455 35.160239 10.947571 -49.219291 0.000000 0.000000 0.000000
-61.791507 73.410017 239.904283 -1.949712 -1.026149 11.777561 0.366182 0.090073 -11.839957 -0.060336 -0.289899 -0.058264 4.972136 -1.872684 -0.984792 0.000000 0.000000 0.000000 -16.964665 -16.228800 -0.753514 121.502077 18.014946 -20.829191 -79.794167 -8.140861 -44.428651 19.928636 37.589704 48.068883 0.000000 0.000000 0.000000 0.000000 0.000000 0.000000 -0.695767 -0.577808 -0.301895 1.331084 5.173941 0.583552 -15.998659 -11.358526 -3.926376 2.626745 4.109551 1.356036 0.000000 0.000000 0.000000 0.000000 0.000000 0.000000 0.280078 0.149796 -11.608074 4.605928 2.648855 -0.494838 -2.373706 -2.348203 -2.359452 0.000000 0.000000 0.000000 6.317933 0.400358 -12.506644 -4.412478 1.502608 0.517901 36.111333 9.994738 -65.700325 0.000000 0.000000 0.000000
-61.812703 73.418577 239.944891 -1.977088 -1.082132 11.648172 0.375429 0.091511 -11.712034 -0.065662 -0.325240 -0.058524 5.202890 -1.929946 -1.054917 0.000000 0.000000 0.000000 -15.482583 -15.376088 -0.549020 121.615302 18.387461 -20.436037 -83.128071 -9.373147 -44.104109 21.124996 37.656335 47.028286 0.000000 0.000000 0.000000 0.000000 0.000000 0.000000 -0.711083 -0.592106 -0.326642 1.393389 5.217713 0.604776 -16.551626 -10.934129 -3.934255 2.748408 4.236692 1.525917 0.000000 0.000000 0.000000 0.000000 0.000000 0.000000 0.344063 0.248652 -11.482984 4.705149 2.527580 -0.479783 -2.459169 -2.293459 -2.543136 0.000000 0.000000 0.000000 6.420797 0.552629 -12.406220 -4.477188 1.412921 0.533515 35.375556 10.176962 -64.224796 0.000000 0.000000 0.000000
-61.834573 73.426125 239.984594 -2.003799 -1.135439 11.509591 0.378307 0.089831 -11.575043 -0.069640 -0.352469 -0.058951 5.416667 -1.955275 -1.118801 0.000000 0.000000 0.000000 -15.217525 -15.159107 -0.496638 121.777462 18.398286 -20.299629 -84.075807 -9.279115 -43.733545 21.969281 37.206076 46.898019 0.000000 0.000000 0.000000 0.000000 0.000000 0.000000 -0.692869 -0.598589 -0.347941 1.365460 5.234047 0.608516 -16.899235 -10.806458 -3.954284 2.525804 5.008181 1.907199 0.000000 0.000000 0.000000 0.000000 0.000000 0.000000 0.373176 0.340789 -11.345333 4.885646 2.557564 -0.490785 -2.591412 -2.386516 -2.712826 0.000000 0.000000 0.000000 6.528526 0.685950 -12.295652 -4.571603 1.351604 0.550980 34.719120 11.075166 -45.074607 0.000000 0.000000 0.000000
-61.850728 73.434871 240.016248 -2.021866 -1.176576 11.375598 0.370506 0.080152 -11.442420 -0.070884 -0.375905 -0.059264 5.619465 -1.951300 -1.180724 0.000000 0.000000 0.000000 -14.921632 -15.029820 -0.460318 120.511456 18.490047 -19.926104 -82.625871 -9.639347 -44.095177 20.671463 37.944993 47.116841 0.000000 0.000000 0.000000 0.000000 0.000000 0.000000 -0.618233 -0.611048 -0.370473 1.260493 5.233060 0.607779 -16.769612 -10.158450 -3.761811 2.210447 5.136674 2.113586 0.000000 0.000000 0.000000 0.000000 0.000000 0.000000 0.387747 0.415146 -11.211579 5.136604 2.804078 -0.536288 -2.797554 -2.697114 -2.807242 0.000000 0.000000 0.000000 6.611397 0.792949 -12.184222 -4.571016 1.355416 0.550670 35.518672 11.289907 -40.015186 0.000000 0.000000 0.000000
-61.861633 73.443449 240.042646 -2.031876 -1.207625 11.222111 0.352929 0.066843 -11.290091 -0.067655 -0.384752 -0.059466 5.804090 -1.934548 -1.237337 0.000000 0.000000 0.000000 -14.672005 -14.925267 -0.431932 119.660238 18.714075 -19.997647 -81.912301 -10.334001 -44.290773 20.084390 38.414476 47.073398 0.000000 0.000000 0.000000 0.000000 0.000000 0.000000 -0.589073 -0.627841 -0.388719 1.208085 5.227351 0.605926 -16.964022 -9.728724 -3.680359 2.456213 6.296047 2.615488 0.000000 0.000000 0.000000 0.000000 0.000000 0.000000 0.359302 0.468813 -11.054495 5.521000 3.271636 -0.622157 -3.103571 -3.217779 -2.881011 0.000000 0.000000 0.000000 6.672255 0.881336 -12.048846 -4.667788 1.303851 0.567540 36.783537 10.836648 -48.727992 0.000000 0.000000 0.000000
